# Tiled2Unity generated file. Do not modify by hand.
# Wavefront file for 'map_mesh_0004.obj'

# Vertices (Count = 628)
v -1104 -48 0
v -1120 -48 0
v -1120 -32 0
v -1104 -32 0
v -1008 -96 0
v -1024 -96 0
v -1024 -80 0
v -1008 -80 0
v -992 -96 0
v -1008 -96 0
v -1008 -80 0
v -992 -80 0
v -976 -96 0
v -992 -96 0
v -992 -80 0
v -976 -80 0
v -960 -96 0
v -976 -96 0
v -976 -80 0
v -960 -80 0
v -944 -96 0
v -960 -96 0
v -960 -80 0
v -944 -80 0
v -928 -96 0
v -944 -96 0
v -944 -80 0
v -928 -80 0
v -912 -96 0
v -928 -96 0
v -928 -80 0
v -912 -80 0
v -896 -96 0
v -912 -96 0
v -912 -80 0
v -896 -80 0
v -880 -96 0
v -896 -96 0
v -896 -80 0
v -880 -80 0
v -864 -96 0
v -880 -96 0
v -880 -80 0
v -864 -80 0
v -848 -96 0
v -864 -96 0
v -864 -80 0
v -848 -80 0
v -832 -96 0
v -848 -96 0
v -848 -80 0
v -832 -80 0
v -816 -96 0
v -832 -96 0
v -832 -80 0
v -816 -80 0
v -800 -96 0
v -816 -96 0
v -816 -80 0
v -800 -80 0
v -784 -96 0
v -800 -96 0
v -800 -80 0
v -784 -80 0
v -768 -96 0
v -784 -96 0
v -784 -80 0
v -768 -80 0
v -1008 -112 0
v -1024 -112 0
v -1024 -96 0
v -1008 -96 0
v -1008 -128 0
v -1024 -128 0
v -1024 -112 0
v -1008 -112 0
v -992 -128 0
v -1008 -128 0
v -1008 -112 0
v -992 -112 0
v -976 -128 0
v -992 -128 0
v -992 -112 0
v -976 -112 0
v -960 -128 0
v -976 -128 0
v -976 -112 0
v -960 -112 0
v -944 -128 0
v -960 -128 0
v -960 -112 0
v -944 -112 0
v -928 -128 0
v -944 -128 0
v -944 -112 0
v -928 -112 0
v -880 -128 0
v -896 -128 0
v -896 -112 0
v -880 -112 0
v -864 -128 0
v -880 -128 0
v -880 -112 0
v -864 -112 0
v -848 -128 0
v -864 -128 0
v -864 -112 0
v -848 -112 0
v -816 -128 0
v -832 -128 0
v -832 -112 0
v -816 -112 0
v -800 -128 0
v -816 -128 0
v -816 -112 0
v -800 -112 0
v -784 -128 0
v -800 -128 0
v -800 -112 0
v -784 -112 0
v -1264 -160 0
v -1280 -160 0
v -1280 -144 0
v -1264 -144 0
v -1248 -160 0
v -1264 -160 0
v -1264 -144 0
v -1248 -144 0
v -1008 -160 0
v -1024 -160 0
v -1024 -144 0
v -1008 -144 0
v -992 -160 0
v -1008 -160 0
v -1008 -144 0
v -992 -144 0
v -976 -160 0
v -992 -160 0
v -992 -144 0
v -976 -144 0
v -960 -160 0
v -976 -160 0
v -976 -144 0
v -960 -144 0
v -944 -160 0
v -960 -160 0
v -960 -144 0
v -944 -144 0
v -928 -160 0
v -944 -160 0
v -944 -144 0
v -928 -144 0
v -912 -160 0
v -928 -160 0
v -928 -144 0
v -912 -144 0
v -896 -160 0
v -912 -160 0
v -912 -144 0
v -896 -144 0
v -880 -160 0
v -896 -160 0
v -896 -144 0
v -880 -144 0
v -848 -160 0
v -864 -160 0
v -864 -144 0
v -848 -144 0
v -832 -160 0
v -848 -160 0
v -848 -144 0
v -832 -144 0
v -816 -160 0
v -832 -160 0
v -832 -144 0
v -816 -144 0
v -800 -160 0
v -816 -160 0
v -816 -144 0
v -800 -144 0
v -784 -160 0
v -800 -160 0
v -800 -144 0
v -784 -144 0
v -768 -160 0
v -784 -160 0
v -784 -144 0
v -768 -144 0
v -1264 -176 0
v -1280 -176 0
v -1280 -160 0
v -1264 -160 0
v -1248 -176 0
v -1264 -176 0
v -1264 -160 0
v -1248 -160 0
v -1232 -176 0
v -1248 -176 0
v -1248 -160 0
v -1232 -160 0
v -1216 -176 0
v -1232 -176 0
v -1232 -160 0
v -1216 -160 0
v -1200 -176 0
v -1216 -176 0
v -1216 -160 0
v -1200 -160 0
v -1184 -176 0
v -1200 -176 0
v -1200 -160 0
v -1184 -160 0
v -1008 -192 0
v -1024 -192 0
v -1024 -176 0
v -1008 -176 0
v -976 -192 0
v -992 -192 0
v -992 -176 0
v -976 -176 0
v -960 -192 0
v -976 -192 0
v -976 -176 0
v -960 -176 0
v -944 -192 0
v -960 -192 0
v -960 -176 0
v -944 -176 0
v -928 -192 0
v -944 -192 0
v -944 -176 0
v -928 -176 0
v -912 -192 0
v -928 -192 0
v -928 -176 0
v -912 -176 0
v -880 -192 0
v -896 -192 0
v -896 -176 0
v -880 -176 0
v -864 -192 0
v -880 -192 0
v -880 -176 0
v -864 -176 0
v -848 -192 0
v -864 -192 0
v -864 -176 0
v -848 -176 0
v -816 -192 0
v -832 -192 0
v -832 -176 0
v -816 -176 0
v -800 -192 0
v -816 -192 0
v -816 -176 0
v -800 -176 0
v -784 -192 0
v -800 -192 0
v -800 -176 0
v -784 -176 0
v -768 -192 0
v -784 -192 0
v -784 -176 0
v -768 -176 0
v -1216 -224 0
v -1232 -224 0
v -1232 -208 0
v -1216 -208 0
v -1200 -224 0
v -1216 -224 0
v -1216 -208 0
v -1200 -208 0
v -1184 -224 0
v -1200 -224 0
v -1200 -208 0
v -1184 -208 0
v -1168 -224 0
v -1184 -224 0
v -1184 -208 0
v -1168 -208 0
v -976 -256 0
v -992 -256 0
v -992 -240 0
v -976 -240 0
v -960 -256 0
v -976 -256 0
v -976 -240 0
v -960 -240 0
v -944 -256 0
v -960 -256 0
v -960 -240 0
v -944 -240 0
v -928 -256 0
v -944 -256 0
v -944 -240 0
v -928 -240 0
v -912 -256 0
v -928 -256 0
v -928 -240 0
v -912 -240 0
v -896 -256 0
v -912 -256 0
v -912 -240 0
v -896 -240 0
v -880 -256 0
v -896 -256 0
v -896 -240 0
v -880 -240 0
v -864 -256 0
v -880 -256 0
v -880 -240 0
v -864 -240 0
v -848 -256 0
v -864 -256 0
v -864 -240 0
v -848 -240 0
v -832 -256 0
v -848 -256 0
v -848 -240 0
v -832 -240 0
v -816 -256 0
v -832 -256 0
v -832 -240 0
v -816 -240 0
v -800 -256 0
v -816 -256 0
v -816 -240 0
v -800 -240 0
v -944 -272 0
v -960 -272 0
v -960 -256 0
v -944 -256 0
v -928 -272 0
v -944 -272 0
v -944 -256 0
v -928 -256 0
v -912 -272 0
v -928 -272 0
v -928 -256 0
v -912 -256 0
v -896 -272 0
v -912 -272 0
v -912 -256 0
v -896 -256 0
v -880 -272 0
v -896 -272 0
v -896 -256 0
v -880 -256 0
v -864 -272 0
v -880 -272 0
v -880 -256 0
v -864 -256 0
v -848 -272 0
v -864 -272 0
v -864 -256 0
v -848 -256 0
v -832 -272 0
v -848 -272 0
v -848 -256 0
v -832 -256 0
v -816 -272 0
v -832 -272 0
v -832 -256 0
v -816 -256 0
v -800 -272 0
v -816 -272 0
v -816 -256 0
v -800 -256 0
v -1376 -288 0
v -1392 -288 0
v -1392 -272 0
v -1376 -272 0
v -1216 -288 0
v -1232 -288 0
v -1232 -272 0
v -1216 -272 0
v -1200 -288 0
v -1216 -288 0
v -1216 -272 0
v -1200 -272 0
v -1184 -288 0
v -1200 -288 0
v -1200 -272 0
v -1184 -272 0
v -1168 -288 0
v -1184 -288 0
v -1184 -272 0
v -1168 -272 0
v -1152 -288 0
v -1168 -288 0
v -1168 -272 0
v -1152 -272 0
v -1136 -288 0
v -1152 -288 0
v -1152 -272 0
v -1136 -272 0
v -1120 -288 0
v -1136 -288 0
v -1136 -272 0
v -1120 -272 0
v -1104 -288 0
v -1120 -288 0
v -1120 -272 0
v -1104 -272 0
v -1088 -288 0
v -1104 -288 0
v -1104 -272 0
v -1088 -272 0
v -1072 -288 0
v -1088 -288 0
v -1088 -272 0
v -1072 -272 0
v -1056 -288 0
v -1072 -288 0
v -1072 -272 0
v -1056 -272 0
v -1040 -288 0
v -1056 -288 0
v -1056 -272 0
v -1040 -272 0
v -1024 -288 0
v -1040 -288 0
v -1040 -272 0
v -1024 -272 0
v -1008 -288 0
v -1024 -288 0
v -1024 -272 0
v -1008 -272 0
v -592 -288 0
v -608 -288 0
v -608 -272 0
v -592 -272 0
v -1216 -304 0
v -1232 -304 0
v -1232 -288 0
v -1216 -288 0
v -960 -304 0
v -976 -304 0
v -976 -288 0
v -960 -288 0
v -912 -304 0
v -928 -304 0
v -928 -288 0
v -912 -288 0
v -896 -304 0
v -912 -304 0
v -912 -288 0
v -896 -288 0
v -880 -304 0
v -896 -304 0
v -896 -288 0
v -880 -288 0
v -864 -304 0
v -880 -304 0
v -880 -288 0
v -864 -288 0
v -1216 -320 0
v -1232 -320 0
v -1232 -304 0
v -1216 -304 0
v -992 -320 0
v -1008 -320 0
v -1008 -304 0
v -992 -304 0
v -960 -320 0
v -976 -320 0
v -976 -304 0
v -960 -304 0
v -912 -320 0
v -928 -320 0
v -928 -304 0
v -912 -304 0
v -896 -320 0
v -912 -320 0
v -912 -304 0
v -896 -304 0
v -880 -320 0
v -896 -320 0
v -896 -304 0
v -880 -304 0
v -864 -320 0
v -880 -320 0
v -880 -304 0
v -864 -304 0
v -848 -320 0
v -864 -320 0
v -864 -304 0
v -848 -304 0
v -1216 -336 0
v -1232 -336 0
v -1232 -320 0
v -1216 -320 0
v -976 -336 0
v -992 -336 0
v -992 -320 0
v -976 -320 0
v -720 -336 0
v -736 -336 0
v -736 -320 0
v -720 -320 0
v -624 -336 0
v -640 -336 0
v -640 -320 0
v -624 -320 0
v -1216 -352 0
v -1232 -352 0
v -1232 -336 0
v -1216 -336 0
v -976 -352 0
v -992 -352 0
v -992 -336 0
v -976 -336 0
v -960 -352 0
v -976 -352 0
v -976 -336 0
v -960 -336 0
v -896 -352 0
v -912 -352 0
v -912 -336 0
v -896 -336 0
v -1216 -368 0
v -1232 -368 0
v -1232 -352 0
v -1216 -352 0
v -960 -368 0
v -976 -368 0
v -976 -352 0
v -960 -352 0
v -672 -368 0
v -688 -368 0
v -688 -352 0
v -672 -352 0
v -640 -368 0
v -656 -368 0
v -656 -352 0
v -640 -352 0
v -1216 -384 0
v -1232 -384 0
v -1232 -368 0
v -1216 -368 0
v -768 -384 0
v -784 -384 0
v -784 -368 0
v -768 -368 0
v -1216 -400 0
v -1232 -400 0
v -1232 -384 0
v -1216 -384 0
v -1216 -416 0
v -1232 -416 0
v -1232 -400 0
v -1216 -400 0
v -720 -416 0
v -736 -416 0
v -736 -400 0
v -720 -400 0
v -1216 -432 0
v -1232 -432 0
v -1232 -416 0
v -1216 -416 0
v -1216 -448 0
v -1232 -448 0
v -1232 -432 0
v -1216 -432 0
v -1216 -464 0
v -1232 -464 0
v -1232 -448 0
v -1216 -448 0
v -560 -464 0
v -576 -464 0
v -576 -448 0
v -560 -448 0
v -816 -480 0
v -832 -480 0
v -832 -464 0
v -816 -464 0
v -864 -624 0
v -880 -624 0
v -880 -608 0
v -864 -608 0
v -928 -640 0
v -944 -640 0
v -944 -624 0
v -928 -624 0
v -896 -640 0
v -912 -640 0
v -912 -624 0
v -896 -624 0
v -928 -672 0
v -944 -672 0
v -944 -656 0
v -928 -656 0
v -832 -672 0
v -848 -672 0
v -848 -656 0
v -832 -656 0
v -672 -800 0
v -688 -800 0
v -688 -784 0
v -672 -784 0
v -464 -896 0
v -480 -896 0
v -480 -880 0
v -464 -880 0
v -1456 -928 0
v -1472 -928 0
v -1472 -912 0
v -1456 -912 0
v -1456 -944 0
v -1472 -944 0
v -1472 -928 0
v -1456 -928 0
v -560 -976 0
v -576 -976 0
v -576 -960 0
v -560 -960 0
v -560 -992 0
v -576 -992 0
v -576 -976 0
v -560 -976 0
v -384 -1040 0
v -400 -1040 0
v -400 -1024 0
v -384 -1024 0
v -1312 -1104 0
v -1328 -1104 0
v -1328 -1088 0
v -1312 -1088 0

# Texture cooridinates (Count = 144)
vt 0.9307851 0.4847909
vt 0.947314 0.4847909
vt 0.947314 0.5152091
vt 0.9307851 0.5152091
vt 0.9307851 0.6463878
vt 0.947314 0.6463878
vt 0.947314 0.6768061
vt 0.9307851 0.6768061
vt 0.9307851 0.6140684
vt 0.947314 0.6140684
vt 0.947314 0.6444867
vt 0.9307851 0.6444867
vt 0.8956612 0.6140684
vt 0.9121901 0.6140684
vt 0.9121901 0.6444867
vt 0.8956612 0.6444867
vt 0.9307851 0.6787072
vt 0.947314 0.6787072
vt 0.947314 0.7091255
vt 0.9307851 0.7091255
vt 0.9132231 0.6140684
vt 0.9297521 0.6140684
vt 0.9297521 0.6444867
vt 0.9132231 0.6444867
vt 0.8956612 0.6463878
vt 0.9121901 0.6463878
vt 0.9121901 0.6768061
vt 0.8956612 0.6768061
vt 0.8956612 0.6787072
vt 0.9121901 0.6787072
vt 0.9121901 0.7091255
vt 0.8956612 0.7091255
vt 0.9132231 0.6463878
vt 0.9297521 0.6463878
vt 0.9297521 0.6768061
vt 0.9132231 0.6768061
vt 0.9132231 0.6787072
vt 0.9297521 0.6787072
vt 0.9297521 0.7091255
vt 0.9132231 0.7091255
vt 0.9307851 0.5171102
vt 0.947314 0.5171102
vt 0.947314 0.5475285
vt 0.9307851 0.5475285
vt 0.9132231 0.5494297
vt 0.9297521 0.5494297
vt 0.9297521 0.5798479
vt 0.9132231 0.5798479
vt 0.8956612 0.5494297
vt 0.9121901 0.5494297
vt 0.9121901 0.5798479
vt 0.8956612 0.5798479
vt 0.9483471 0.5817491
vt 0.9648761 0.5817491
vt 0.9648761 0.6121673
vt 0.9483471 0.6121673
vt 0.9483471 0.6140684
vt 0.9648761 0.6140684
vt 0.9648761 0.6444867
vt 0.9483471 0.6444867
vt 0.8605372 0.6463878
vt 0.8770661 0.6463878
vt 0.8770661 0.6768061
vt 0.8605372 0.6768061
vt 0.8429752 0.6463878
vt 0.8595041 0.6463878
vt 0.8595041 0.6768061
vt 0.8429752 0.6768061
vt 0.8605372 0.6140684
vt 0.8770661 0.6140684
vt 0.8770661 0.6444867
vt 0.8605372 0.6444867
vt 0.8429752 0.6140684
vt 0.8595041 0.6140684
vt 0.8595041 0.6444867
vt 0.8429752 0.6444867
vt 0.7376033 0.3878327
vt 0.7541322 0.3878327
vt 0.7541322 0.418251
vt 0.7376033 0.418251
vt 0.7727273 0.3878327
vt 0.7892562 0.3878327
vt 0.7892562 0.418251
vt 0.7727273 0.418251
vt 0.7551653 0.3878327
vt 0.7716942 0.3878327
vt 0.7716942 0.418251
vt 0.7551653 0.418251
vt 0.9307851 0.3555133
vt 0.947314 0.3555133
vt 0.947314 0.3859316
vt 0.9307851 0.3859316
vt 0.7551653 0.3555133
vt 0.7716942 0.3555133
vt 0.7716942 0.3859316
vt 0.7551653 0.3859316
vt 0.7551653 0.6463878
vt 0.7716942 0.6463878
vt 0.7716942 0.6768061
vt 0.7551653 0.6768061
vt 0.7376033 0.6463878
vt 0.7541322 0.6463878
vt 0.7541322 0.6768061
vt 0.7376033 0.6768061
vt 0.7551653 0.6140684
vt 0.7716942 0.6140684
vt 0.7716942 0.6444867
vt 0.7551653 0.6444867
vt 0.7727273 0.3555133
vt 0.7892562 0.3555133
vt 0.7892562 0.3859316
vt 0.7727273 0.3859316
vt 0.7376033 0.6140684
vt 0.7541322 0.6140684
vt 0.7541322 0.6444867
vt 0.7376033 0.6444867
vt 0.9307851 0.2585551
vt 0.947314 0.2585551
vt 0.947314 0.2889734
vt 0.9307851 0.2889734
vt 0.9307851 0.3231939
vt 0.947314 0.3231939
vt 0.947314 0.3536122
vt 0.9307851 0.3536122
vt 0.9307851 0.2908745
vt 0.947314 0.2908745
vt 0.947314 0.3212928
vt 0.9307851 0.3212928
vt 0.7200413 0.3555133
vt 0.7365702 0.3555133
vt 0.7365702 0.3859316
vt 0.7200413 0.3859316
vt 0.9659091 0.2585551
vt 0.982438 0.2585551
vt 0.982438 0.2889734
vt 0.9659091 0.2889734
vt 0.9483471 0.3231939
vt 0.9648761 0.3231939
vt 0.9648761 0.3536122
vt 0.9483471 0.3536122
vt 0.9659091 0.2262357
vt 0.982438 0.2262357
vt 0.982438 0.256654
vt 0.9659091 0.256654

# Normal
vn 0 0 -1

# Mesh description
g map_mesh_0004

# Faces
f 1/1/1 2/2/1 3/3/1 4/4/1
f 5/5/1 6/6/1 7/7/1 8/8/1
f 9/9/1 10/10/1 11/11/1 12/12/1
f 13/13/1 14/14/1 15/15/1 16/16/1
f 17/9/1 18/10/1 19/11/1 20/12/1
f 21/13/1 22/14/1 23/15/1 24/16/1
f 25/17/1 26/18/1 27/19/1 28/20/1
f 29/21/1 30/22/1 31/23/1 32/24/1
f 33/13/1 34/14/1 35/15/1 36/16/1
f 37/21/1 38/22/1 39/23/1 40/24/1
f 41/5/1 42/6/1 43/7/1 44/8/1
f 45/25/1 46/26/1 47/27/1 48/28/1
f 49/25/1 50/26/1 51/27/1 52/28/1
f 53/25/1 54/26/1 55/27/1 56/28/1
f 57/5/1 58/6/1 59/7/1 60/8/1
f 61/9/1 62/10/1 63/11/1 64/12/1
f 65/29/1 66/30/1 67/31/1 68/32/1
f 69/33/1 70/34/1 71/35/1 72/36/1
f 73/29/1 74/30/1 75/31/1 76/32/1
f 77/37/1 78/38/1 79/39/1 80/40/1
f 81/29/1 82/30/1 83/31/1 84/32/1
f 85/37/1 86/38/1 87/39/1 88/40/1
f 89/25/1 90/26/1 91/27/1 92/28/1
f 93/25/1 94/26/1 95/27/1 96/28/1
f 97/17/1 98/18/1 99/19/1 100/20/1
f 101/21/1 102/22/1 103/23/1 104/24/1
f 105/9/1 106/10/1 107/11/1 108/12/1
f 109/21/1 110/22/1 111/23/1 112/24/1
f 113/33/1 114/34/1 115/35/1 116/36/1
f 117/17/1 118/18/1 119/19/1 120/20/1
f 121/1/1 122/2/1 123/3/1 124/4/1
f 125/1/1 126/2/1 127/3/1 128/4/1
f 129/33/1 130/34/1 131/35/1 132/36/1
f 133/21/1 134/22/1 135/23/1 136/24/1
f 137/29/1 138/30/1 139/31/1 140/32/1
f 141/5/1 142/6/1 143/7/1 144/8/1
f 145/25/1 146/26/1 147/27/1 148/28/1
f 149/25/1 150/26/1 151/27/1 152/28/1
f 153/37/1 154/38/1 155/39/1 156/40/1
f 157/33/1 158/34/1 159/35/1 160/36/1
f 161/25/1 162/26/1 163/27/1 164/28/1
f 165/21/1 166/22/1 167/23/1 168/24/1
f 169/25/1 170/26/1 171/27/1 172/28/1
f 173/29/1 174/30/1 175/31/1 176/32/1
f 177/9/1 178/10/1 179/11/1 180/12/1
f 181/29/1 182/30/1 183/31/1 184/32/1
f 185/5/1 186/6/1 187/7/1 188/8/1
f 189/41/1 190/42/1 191/43/1 192/44/1
f 193/41/1 194/42/1 195/43/1 196/44/1
f 197/41/1 198/42/1 199/43/1 200/44/1
f 201/41/1 202/42/1 203/43/1 204/44/1
f 205/41/1 206/42/1 207/43/1 208/44/1
f 209/41/1 210/42/1 211/43/1 212/44/1
f 213/29/1 214/30/1 215/31/1 216/32/1
f 217/17/1 218/18/1 219/19/1 220/20/1
f 221/33/1 222/34/1 223/35/1 224/36/1
f 225/17/1 226/18/1 227/19/1 228/20/1
f 229/13/1 230/14/1 231/15/1 232/16/1
f 233/29/1 234/30/1 235/31/1 236/32/1
f 237/37/1 238/38/1 239/39/1 240/40/1
f 241/13/1 242/14/1 243/15/1 244/16/1
f 245/9/1 246/10/1 247/11/1 248/12/1
f 249/25/1 250/26/1 251/27/1 252/28/1
f 253/25/1 254/26/1 255/27/1 256/28/1
f 257/9/1 258/10/1 259/11/1 260/12/1
f 261/5/1 262/6/1 263/7/1 264/8/1
f 265/45/1 266/46/1 267/47/1 268/48/1
f 269/49/1 270/50/1 271/51/1 272/52/1
f 273/45/1 274/46/1 275/47/1 276/48/1
f 277/49/1 278/50/1 279/51/1 280/52/1
f 281/53/1 282/54/1 283/55/1 284/56/1
f 285/57/1 286/58/1 287/59/1 288/60/1
f 289/61/1 290/62/1 291/63/1 292/64/1
f 293/65/1 294/66/1 295/67/1 296/68/1
f 297/61/1 298/62/1 299/63/1 300/64/1
f 301/65/1 302/66/1 303/67/1 304/68/1
f 305/61/1 306/62/1 307/63/1 308/64/1
f 309/65/1 310/66/1 311/67/1 312/68/1
f 313/61/1 314/62/1 315/63/1 316/64/1
f 317/65/1 318/66/1 319/67/1 320/68/1
f 321/61/1 322/62/1 323/63/1 324/64/1
f 325/65/1 326/66/1 327/67/1 328/68/1
f 329/69/1 330/70/1 331/71/1 332/72/1
f 333/73/1 334/74/1 335/75/1 336/76/1
f 337/69/1 338/70/1 339/71/1 340/72/1
f 341/73/1 342/74/1 343/75/1 344/76/1
f 345/69/1 346/70/1 347/71/1 348/72/1
f 349/73/1 350/74/1 351/75/1 352/76/1
f 353/69/1 354/70/1 355/71/1 356/72/1
f 357/73/1 358/74/1 359/75/1 360/76/1
f 361/69/1 362/70/1 363/71/1 364/72/1
f 365/73/1 366/74/1 367/75/1 368/76/1
f 369/1/1 370/2/1 371/3/1 372/4/1
f 373/77/1 374/78/1 375/79/1 376/80/1
f 377/81/1 378/82/1 379/83/1 380/84/1
f 381/85/1 382/86/1 383/87/1 384/88/1
f 385/85/1 386/86/1 387/87/1 388/88/1
f 389/85/1 390/86/1 391/87/1 392/88/1
f 393/85/1 394/86/1 395/87/1 396/88/1
f 397/85/1 398/86/1 399/87/1 400/88/1
f 401/85/1 402/86/1 403/87/1 404/88/1
f 405/85/1 406/86/1 407/87/1 408/88/1
f 409/85/1 410/86/1 411/87/1 412/88/1
f 413/85/1 414/86/1 415/87/1 416/88/1
f 417/85/1 418/86/1 419/87/1 420/88/1
f 421/85/1 422/86/1 423/87/1 424/88/1
f 425/85/1 426/86/1 427/87/1 428/88/1
f 429/89/1 430/90/1 431/91/1 432/92/1
f 433/93/1 434/94/1 435/95/1 436/96/1
f 437/97/1 438/98/1 439/99/1 440/100/1
f 441/61/1 442/62/1 443/63/1 444/64/1
f 445/65/1 446/66/1 447/67/1 448/68/1
f 449/61/1 450/62/1 451/63/1 452/64/1
f 453/65/1 454/66/1 455/67/1 456/68/1
f 457/93/1 458/94/1 459/95/1 460/96/1
f 461/101/1 462/102/1 463/103/1 464/104/1
f 465/105/1 466/106/1 467/107/1 468/108/1
f 469/69/1 470/70/1 471/71/1 472/72/1
f 473/73/1 474/74/1 475/75/1 476/76/1
f 477/69/1 478/70/1 479/71/1 480/72/1
f 481/73/1 482/74/1 483/75/1 484/76/1
f 485/57/1 486/58/1 487/59/1 488/60/1
f 489/93/1 490/94/1 491/95/1 492/96/1
f 493/97/1 494/98/1 495/99/1 496/100/1
f 497/89/1 498/90/1 499/91/1 500/92/1
f 501/89/1 502/90/1 503/91/1 504/92/1
f 505/109/1 506/110/1 507/111/1 508/112/1
f 509/113/1 510/114/1 511/115/1 512/116/1
f 513/105/1 514/106/1 515/107/1 516/108/1
f 517/97/1 518/98/1 519/99/1 520/100/1
f 521/109/1 522/110/1 523/111/1 524/112/1
f 525/97/1 526/98/1 527/99/1 528/100/1
f 529/117/1 530/118/1 531/119/1 532/120/1
f 533/121/1 534/122/1 535/123/1 536/124/1
f 537/109/1 538/110/1 539/111/1 540/112/1
f 541/125/1 542/126/1 543/127/1 544/128/1
f 545/109/1 546/110/1 547/111/1 548/112/1
f 549/93/1 550/94/1 551/95/1 552/96/1
f 553/121/1 554/122/1 555/123/1 556/124/1
f 557/93/1 558/94/1 559/95/1 560/96/1
f 561/93/1 562/94/1 563/95/1 564/96/1
f 565/129/1 566/130/1 567/131/1 568/132/1
f 569/133/1 570/134/1 571/135/1 572/136/1
f 573/121/1 574/122/1 575/123/1 576/124/1
f 577/137/1 578/138/1 579/139/1 580/140/1
f 581/137/1 582/138/1 583/139/1 584/140/1
f 585/137/1 586/138/1 587/139/1 588/140/1
f 589/133/1 590/134/1 591/135/1 592/136/1
f 593/137/1 594/138/1 595/139/1 596/140/1
f 597/133/1 598/134/1 599/135/1 600/136/1
f 601/141/1 602/142/1 603/143/1 604/144/1
f 605/141/1 606/142/1 607/143/1 608/144/1
f 609/141/1 610/142/1 611/143/1 612/144/1
f 613/141/1 614/142/1 615/143/1 616/144/1
f 617/141/1 618/142/1 619/143/1 620/144/1
f 621/141/1 622/142/1 623/143/1 624/144/1
f 625/141/1 626/142/1 627/143/1 628/144/1

